# xmcd
#
# Track frame offsets: 
#        150
#        15916
#        33383
#        52758
#        69937
#        84622
#        98239
#        107063
#        124503
#        138883
#        156783
#        172941
#        189832
#        205483
#        235275
#
# Disc length: 3195 seconds
#
# Revision: 0
# Processed by: cddbd v1.5.2PL0 Copyright (c) Steve Scherf et al.
# Submitted via: ExactAudioCopy v0.99pb5
#
DISCID=b20c790f
DTITLE=Anne and Pete Sibley - Coming Home
DYEAR=2009
DGENRE=Bluegrass
TTITLE0=Tell Me Darling
TTITLE1=Coming Home
TTITLE2=Just the Right Moment
TTITLE3=Sow 'Em on the Mountain
TTITLE4=Pick Up These Chains
TTITLE5=Salted Spring
TTITLE6=My Love Is There
TTITLE7=Past the Point of Rescue
TTITLE8=Keep These Walls from Falling In
TTITLE9=Someone To Save Me
TTITLE10=Up and Down - Waiting for Turtle
TTITLE11=All I Wanted
TTITLE12=Come a Long Way
TTITLE13=Wayfaring Stranger
TTITLE14=Data
EXTD=
EXTT0=
EXTT1=
EXTT2=
EXTT3=
EXTT4=
EXTT5=
EXTT6=
EXTT7=
EXTT8=
EXTT9=
EXTT10=
EXTT11=
EXTT12=
EXTT13=
EXTT14=
PLAYORDER=
